<?xml version="1.0" encoding="UTF-8"?><svg id="a" xmlns="http://www.w3.org/2000/svg" viewBox="0 0 411.23 298.79"><defs><style>.b{fill:#007cae;}</style></defs><path class="b" d="M130.94,128.72c-11.1-6.66-20.92-9.51-33.92-9.51-28.53,0-47.56,15.53-47.56,39.95s18.71,41.53,47.56,41.53c13.31,0,22.83-2.54,35.51-9.19v39.63c-15.85,7.93-28.85,11.1-47.87,11.1C32.65,242.22,0,211.78,0,163.27S35.83,79.89,88.45,79.89c15.85,0,27.27,2.54,42.48,9.19v39.63Z"/><path class="b" d="M143.61,86.87h25.05v-3.8c0-34.24,6.34-52.63,22.82-66.26C203.84,6.34,222.87,0,243.16,0c6.66,0,11.1,.63,18.39,2.22V41.22c-4.76-1.58-7.93-1.9-12.05-1.9-10.78,0-19.97,3.49-25.05,9.51-5.39,6.02-6.98,14.9-6.98,35.19v2.85h37.73v36.46h-37.73l-.13,138.48-38.02,35.31c-3.99,3.71-10.48,.88-10.49-4.57l-.18-169.22h-25.05v-36.46Z"/><path class="b" d="M308.82,175.32c1.58,19.34,16.48,29.8,42.16,29.8,19.34,0,37.1-5.07,51.99-14.9v37.73c-18.7,9.83-38.04,14.58-58.97,14.58-51.99,0-82.43-29.8-82.43-80.53s31.07-82.11,78.31-82.11,71.33,28.85,71.33,79.58c0,2.54,0,6.98-.32,12.36l-.31,3.49h-101.77Zm57.7-33.92c-1.59-17.75-10.78-27.26-26.63-27.26s-27.9,10.46-30.44,27.26h57.07Z"/></svg>